<svg width="398" height="488" viewBox="0 0 398 488" fill="none" xmlns="http://www.w3.org/2000/svg">
<path fill-rule="evenodd" clip-rule="evenodd" d="M72.3636 79.6102C80.6338 78.9209 93.7281 78.2316 111.647 77.5424C168.848 77.5424 211.922 93.3955 240.868 125.102C255.419 140.67 266.398 159.396 273.804 181.28C289.447 184.574 300.702 192.894 307.569 206.24C310.884 213.161 312.541 221.882 312.541 232.403C312.541 242.924 311.712 257.874 310.055 277.254C308.397 296.634 307.569 311.446 307.569 321.69C307.569 331.934 308.535 341.209 310.469 349.514C312.679 357.82 314.751 363.773 316.685 367.372C318.895 370.971 320 373.048 320 373.601C320 377.2 316.132 379 308.397 379C291.69 379 273.204 378.894 263.87 373.647C257.623 388.807 248.578 401.422 236.732 411.492C222.949 422.52 208.821 428.034 194.348 428.034C179.875 428.034 166.092 423.898 152.997 415.627C144.038 410.113 136.113 402.186 129.221 391.847C126.189 386.995 123.29 381.076 120.525 374.09C111.041 377.339 98.9047 377.339 87.1164 377.339C81.0388 377.339 78 375.539 78 371.94C83.5251 338.717 86.2877 296.357 86.2877 244.862C86.2877 225.758 85.8733 212.884 85.0445 206.24L83.387 192.95C83.1107 189.905 82.5582 186.583 81.7295 182.983C81.7295 179.661 86.0114 178 94.5753 178C95.9082 178 97.2566 177.986 98.6072 177.972C105.218 177.905 111.884 177.837 117.068 179.38C123.838 159.055 133.058 141.996 144.727 128.203L150.93 117.864C150.93 113.04 145.072 110.627 133.356 110.627C121.64 110.627 106.133 115.797 86.8363 126.136C71.6744 134.407 57.8909 145.09 45.4857 158.186C33.7697 171.282 23.0874 191.616 13.439 219.186C4.47965 246.757 0 274.328 0 301.898C0 328.78 4.13506 354.972 12.4052 380.475C19.297 399.085 28.2563 415.972 39.2831 431.136C50.9991 445.61 68.9177 458.706 93.039 470.424C117.16 482.141 145.761 488 178.842 488C244.313 488 296.002 465.944 333.906 421.831C371.811 377.718 390.764 321.542 390.764 253.305L388.696 221.254C387.318 200.576 380.426 176.797 368.021 149.915C356.305 123.034 339.42 103.39 317.366 90.983L311.164 83.7458C311.164 78.9209 319.778 70.6497 337.008 58.9322C354.237 46.5254 372.156 37.565 390.764 32.0508C395.588 29.983 398 27.226 398 23.7797C398 19.6441 393.865 15.8531 385.595 12.4068L375.257 9.30509C354.582 3.1017 326.326 0 290.488 0C185.733 0 111.302 20.3333 67.1948 61C63.0597 65.1356 60.9922 69.2712 60.9922 73.4068C60.9922 77.5424 64.7827 79.6102 72.3636 79.6102Z" fill="#605DFF"/>
<path d="M176.397 354.864C179.594 338.955 181.192 316.682 181.192 288.045C181.192 259.182 181.078 242.136 180.849 236.909C180.621 231.682 179.023 227.477 176.055 224.295C173.087 221.114 170.461 219.295 168.178 218.841C166.123 218.386 163.155 218.159 159.274 218.159C155.393 218.159 151.626 219.977 147.973 223.614C144.32 227.023 142.151 230.545 141.466 234.182L140.096 239.636C139.411 246.455 139.068 261.568 139.068 284.977C139.068 308.386 139.525 323.159 140.438 329.295C141.58 335.205 142.151 339.182 142.151 341.227C142.151 343.273 141.237 345.318 139.411 347.364C131.648 355.545 120.689 359.636 106.534 359.636C101.511 359.636 99 358.159 99 355.205C103.566 327.932 105.849 293.159 105.849 250.886C105.849 235.205 105.507 224.636 104.822 219.182L103.452 208.273C103.224 205.773 102.767 203.045 102.082 200.091C102.082 197.364 105.621 196 112.699 196C123.201 196 130.164 199.864 133.589 207.591C133.817 208.5 134.274 208.955 134.959 208.955C135.644 208.955 137.242 208.045 139.753 206.227C147.288 200.318 157.447 197.364 170.233 197.364C177.539 197.364 184.731 198.727 191.808 201.455C198.886 204.182 203.795 207.818 206.534 212.364C206.763 212.818 207.105 213.045 207.562 213.045C208.018 213.045 208.703 212.591 209.616 211.682C219.205 202.136 231.648 197.364 246.945 197.364C267.265 197.364 281.192 204.636 288.726 219.182C291.466 224.864 292.836 232.023 292.836 240.659C292.836 249.295 292.151 261.568 290.781 277.477C289.411 293.386 288.726 305.545 288.726 313.955C288.726 322.364 289.525 329.977 291.123 336.795C292.95 343.614 294.662 348.5 296.26 351.455C298.087 354.409 299 356.114 299 356.568C299 359.523 295.804 361 289.411 361C273.658 361 262.699 357.818 256.534 351.455C250.37 345.091 247.288 336.795 247.288 326.568C247.288 316.114 249.342 302.136 253.452 284.636C257.79 266.909 259.959 253.614 259.959 244.75C259.959 226.795 252.653 217.818 238.041 217.818C231.877 217.818 226.968 219.636 223.315 223.273C219.662 226.909 217.493 230.545 216.808 234.182L216.123 239.636C215.21 250.091 214.753 262.705 214.753 277.477C214.753 292.25 214.982 303.841 215.438 312.25C215.895 320.432 216.352 326.909 216.808 331.682C217.265 336.227 217.493 338.955 217.493 339.864C217.493 346.227 213.498 351.114 205.507 354.523C197.516 357.932 189.753 359.636 182.219 359.636C178.338 359.636 176.397 358.045 176.397 354.864Z" fill="#FFA500"/>
</svg>
